<svg width="71" height="37" viewBox="0 0 71 37" fill="none" xmlns="http://www.w3.org/2000/svg">
<g id="Logo-wide 1" clip-path="url(#clip0_4_671)">
<path id="Vector" d="M67.5749 17.5915L67.5378 17.6287C67.798 16.9225 68.3183 16.6623 68.7643 16.6623C69.3962 16.6623 69.9537 17.1455 69.9537 17.8517C69.9537 18.0004 69.9537 18.1862 69.8794 18.4092C68.5785 21.7544 65.828 23.4641 63.1519 23.7243C61.9254 25.8057 59.9183 27.3296 57.0563 27.3296C52.9678 27.3296 51.1466 24.096 51.1466 20.565C51.1466 16.2163 53.8971 11.3844 58.5059 11.3844C59.5094 11.3844 60.3643 11.6075 61.0705 11.9048C63.1519 12.6853 64.49 15.3986 64.49 18.2977C64.49 19.2269 64.4156 20.1561 64.1926 21.0482C65.5679 20.565 66.8687 19.4499 67.5749 17.5915ZM59.8068 14.4322V14.3951C58.9891 14.3951 58.5059 15.4729 58.5059 16.7738C58.5059 18.6694 59.5466 20.4163 61.182 21.0482C61.4422 20.2305 61.5537 19.3013 61.5537 18.2234C61.5537 16.142 60.9218 14.4322 59.8068 14.4322ZM57.0935 24.6163C58.1342 24.6163 59.1749 24.1703 59.9926 23.2411C57.5767 22.1632 56.0528 19.6358 56.0528 17.2198C56.0528 16.4021 56.2015 15.5473 56.4245 14.8039C54.9378 16.0305 54.0829 18.4464 54.0829 20.565C54.0829 23.3154 55.3838 24.6163 57.0935 24.6163Z" fill="black"/>
<path id="Vector_2" d="M51.7205 17.5915L51.6833 17.6287C51.9435 16.9225 52.3895 16.6252 52.8355 16.6252C53.4674 16.6252 54.0992 17.1827 54.0992 17.8889C54.0992 18.0747 54.0621 18.2234 53.9877 18.4092C52.5382 21.9402 50.3824 26.0659 46.9258 28.4818L46.8515 29.2252C46.4426 33.6854 44.1754 36.5101 41.3134 36.5101C39.1576 36.5101 37.8939 35.0234 37.8939 33.2765C37.8939 30.1172 41.1275 28.965 44.1382 27.0323C44.2125 26.2517 44.2497 25.3597 44.2868 24.3561C42.8001 25.9915 41.2019 26.6606 39.7895 26.6606C36.9647 26.6606 34.6603 24.3561 34.6603 20.8252C34.6603 15.3986 38.2284 11.8305 42.2054 11.8305H42.2426C44.9559 11.8305 47.855 13.28 47.855 15.8818C47.855 16.7367 47.4833 21.3827 47.186 24.988C49.193 23.0924 50.8656 20.0075 51.7205 17.5915ZM40.1983 23.9845C41.5736 23.9845 43.432 23.1296 44.5842 18.9296C44.77 18.0004 44.8815 17.1827 44.8444 16.2163C44.6214 15.2128 43.7665 14.6181 42.5399 14.6181C40.0125 14.6181 37.5966 17.034 37.5966 20.7137C37.5966 22.9438 38.6373 23.9845 40.1983 23.9845ZM41.6107 33.7969H41.6479C42.4284 33.7969 43.2833 33.2765 43.8408 29.9314C42.2054 30.8977 40.6815 31.8641 40.6815 33.0163C40.6815 33.4995 41.0532 33.7969 41.6107 33.7969Z" fill="black"/>
<path id="Vector_3" d="M35.3125 17.5915L35.2754 17.6287C35.5355 16.9225 36.0559 16.6623 36.5019 16.6623C37.1338 16.6623 37.6913 17.1455 37.6913 17.8517C37.6913 18.0004 37.6913 18.1862 37.617 18.4092C36.3161 21.7544 33.5656 23.4641 30.8895 23.7243C29.663 25.8057 27.6559 27.3296 24.7939 27.3296C20.7054 27.3296 18.8842 24.096 18.8842 20.565C18.8842 16.2163 21.6346 11.3844 26.2435 11.3844C27.247 11.3844 28.1019 11.6075 28.8081 11.9048C30.8895 12.6853 32.2276 15.3986 32.2276 18.2977C32.2276 19.2269 32.1532 20.1561 31.9302 21.0482C33.3055 20.565 34.6063 19.4499 35.3125 17.5915ZM27.5444 14.4322V14.3951C26.7267 14.3951 26.2435 15.4729 26.2435 16.7738C26.2435 18.6694 27.2842 20.4163 28.9196 21.0482C29.1798 20.2305 29.2913 19.3013 29.2913 18.2234C29.2913 16.142 28.6594 14.4322 27.5444 14.4322ZM24.8311 24.6163C25.8718 24.6163 26.9125 24.1703 27.7302 23.2411C25.3143 22.1632 23.7904 19.6358 23.7904 17.2198C23.7904 16.4021 23.9391 15.5473 24.1621 14.8039C22.6754 16.0305 21.8205 18.4464 21.8205 20.565C21.8205 23.3154 23.1214 24.6163 24.8311 24.6163Z" fill="black"/>
<path id="Vector_4" d="M20.7733 16.4183C20.2529 16.4183 19.8069 16.6785 19.5095 17.3847C18.5432 19.8378 16.536 24.0007 14.4917 24.0007C13.2045 24.0007 12.2084 23.7096 11.2018 23.4154C10.1738 23.115 9.13503 22.8113 7.76414 22.8113C7.28094 22.8113 6.6119 22.8857 5.98003 22.9972C7.88361 20.4014 8.59475 17.2577 9.28383 11.3154C7.98637 11.2328 6.93096 10.9931 6.16168 10.751C5.34003 18.2875 4.40697 21.1611 0.999397 24.0007C0.55337 24.3724 0.33036 24.8928 0.33036 25.4132C0.33036 26.2309 1.03657 26.9371 1.92863 26.9371C2.22598 26.9371 2.56049 26.8256 2.89501 26.6769C4.79063 25.822 5.94286 25.599 7.35528 25.599C8.25345 25.599 9.32819 25.8559 10.4789 26.1308C11.8043 26.4476 13.2304 26.7884 14.6033 26.7884C17.6139 26.7884 19.5839 23.8521 21.7768 18.1652C21.8884 17.9794 21.9255 17.7564 21.9255 17.5705C21.9255 16.8643 21.368 16.4183 20.7733 16.4183Z" fill="black"/>
<path id="Vector_5" fill-rule="evenodd" clip-rule="evenodd" d="M6.35026 9.21288C7.02334 9.44785 8.07416 9.72141 9.43659 9.80234L9.6596 9.80223C13.8597 9.80223 16.6102 7.20041 16.6102 4.07822C16.6102 2.0711 15.0491 0.51001 12.8561 0.51001C9.91978 0.51001 7.8755 2.51713 6.83477 6.4942C5.53386 5.78799 4.64181 4.52425 4.19578 2.92599C3.97276 2.14544 3.48957 1.66224 2.82052 1.66224C2.00281 1.66224 1.48244 2.29412 1.48244 3.149C1.48244 5.67649 3.4524 8.09246 6.35157 9.20753L6.35026 9.21288ZM9.88261 7.0889C10.4401 4.52425 11.3322 3.29768 12.5216 3.29768C13.1535 3.29768 13.5623 3.66937 13.5623 4.33841C13.5623 5.56498 12.2614 7.01456 9.88261 7.0889Z" fill="black"/>
</g>
<defs>
<clipPath id="clip0_4_671">
<rect width="70" height="36" fill="white" transform="translate(0.33036 0.51001)"/>
</clipPath>
</defs>
</svg>
